# xmcd
#
# Track frame offsets:
#	150
#	6637
#	20462
#	39237
#	58839
#	75636
#	99854
#	114466
#	143075
#	163737
#	183862
#	201948
#	216545
#	239392
#
# Disc length: 3385 seconds
#
# Revision: 0
# Processed by: cddbd v1.5.1PL2 Copyright (c) Steve Scherf et al.
# Submitted via: EasyCDDAExtractor 8.1.2.3
#
DISCID=be0d370e
DTITLE=Medine - Alblum blanc
DYEAR=2006
DGENRE=Rap
TTITLE0=Intro
TTITLE1=Al jazeerap
TTITLE2=Double discours
TTITLE3=Syndrome de stockholm
TTITLE4=Tete froide
TTITLE5=Anéanti
TTITLE6=Ils disent
TTITLE7=Boulevard Vincent Auriol
TTITLE8=Comportement violent
TTITLE9=Système D.I.N
TTITLE10=Musique Archeologique
TTITLE11=Lumiere
TTITLE12=Sans Artifice
TTITLE13=American Dreams
EXTD=
EXTT0=
EXTT1=
EXTT2=
EXTT3=
EXTT4=
EXTT5=
EXTT6=
EXTT7=
EXTT8=
EXTT9=
EXTT10=
EXTT11=
EXTT12=
EXTT13=
PLAYORDER=
